<svg xmlns:xlink="http://www.w3.org/1999/xlink" class="logo logo-goodtime" role="img" xmlns="http://www.w3.org/2000/svg" viewBox="0 0 143 24" width="200"  height="34" ><g fill="none" fill-rule="evenodd"><path fill="#4C36A5" d="M23.465 13.986h.37a.286.286 0 01.286.285v9.419a.286.286 0 01-.286.285h-9.427a.284.284 0 01-.284-.285v-.368c0-5.156 4.182-9.335 9.34-9.336zm-11.34 9.704V.286A.286.286 0 0011.84 0c-.16 0-.29 0-.386.014C5.083.317.063 5.55.03 11.924c-.034 6.374 4.93 11.66 11.297 12.031.125 0 .297.014.513.02a.284.284 0 00.292-.277l-.006-.008z"></path><ellipse cx="19.122" cy="4.995" fill="#6AE9CE" rx="4.998" ry="4.995"></ellipse><g fill="#4C36A5"><path fill-rule="nonzero" d="M55.527 19.048a6.31 6.31 0 01-2.551-.524 6.6 6.6 0 01-3.505-3.611 7.063 7.063 0 01-.518-2.71 7.202 7.202 0 01.518-2.745 6.72 6.72 0 011.409-2.17 6.574 6.574 0 012.092-1.435 6.34 6.34 0 012.55-.52 6.735 6.735 0 012.57.492c.78.315 1.487.787 2.08 1.386a6.647 6.647 0 011.406 2.167c.354.9.53 1.86.517 2.827a7.077 7.077 0 01-.517 2.71 6.825 6.825 0 01-1.406 2.168 6.64 6.64 0 01-2.087 1.44 6.34 6.34 0 01-2.558.525zm0-10.806a3.703 3.703 0 00-1.433.281 3.405 3.405 0 00-1.176.813c-.338.364-.603.79-.781 1.254a4.45 4.45 0 00-.283 1.615c-.004.532.092 1.06.285 1.556.178.463.442.888.777 1.252.331.356.729.642 1.17.843.453.206.944.31 1.44.309a3.643 3.643 0 002.613-1.09c.345-.361.616-.788.797-1.256a4.39 4.39 0 00.29-1.604 4.339 4.339 0 00-.292-1.617 3.883 3.883 0 00-.797-1.254 3.48 3.48 0 00-1.182-.803 3.709 3.709 0 00-1.428-.299zm15.046 10.805a6.305 6.305 0 01-2.55-.523 6.598 6.598 0 01-3.503-3.611 7.066 7.066 0 01-.52-2.708 7.205 7.205 0 01.518-2.745 6.72 6.72 0 011.412-2.173 6.571 6.571 0 012.092-1.434 6.334 6.334 0 012.551-.52 6.73 6.73 0 012.568.492 6.208 6.208 0 012.08 1.386 6.611 6.611 0 011.403 2.167c.355.899.531 1.86.518 2.827a7.08 7.08 0 01-.516 2.71 6.826 6.826 0 01-1.408 2.168 6.605 6.605 0 01-2.083 1.44c-.81.352-1.681.53-2.562.524zm0-10.805a3.692 3.692 0 00-1.432.281 3.403 3.403 0 00-1.175.813c-.338.364-.603.79-.78 1.254a4.452 4.452 0 00-.284 1.615c-.004.532.093 1.06.285 1.556.178.463.442.888.777 1.252.33.356.728.642 1.17.843a3.44 3.44 0 001.44.309 3.64 3.64 0 002.61-1.09c.345-.361.616-.788.797-1.256a4.619 4.619 0 000-3.225 3.89 3.89 0 00-.797-1.254 3.47 3.47 0 00-1.179-.803 3.706 3.706 0 00-1.432-.295zM88.744.762v6.064a6.135 6.135 0 00-1.127-.6 6.743 6.743 0 00-2.568-.492 6.398 6.398 0 00-2.552.52 6.595 6.595 0 00-2.09 1.431 6.716 6.716 0 00-1.413 2.17c-.35.87-.526 1.8-.518 2.738a7.041 7.041 0 00.518 2.706 6.593 6.593 0 003.505 3.605c1.633.7 3.479.7 5.112 0a6.869 6.869 0 001.133-.633v.773h2.875V.762h-2.875zm-1.083 14.701a3.605 3.605 0 01-1.178.801 3.647 3.647 0 01-1.434.287 3.463 3.463 0 01-1.443-.309c-.44-.2-.837-.486-1.167-.84a3.96 3.96 0 01-.779-1.25 4.225 4.225 0 01-.283-1.554 4.436 4.436 0 01.283-1.623c.178-.464.443-.889.781-1.251.331-.347.732-.62 1.175-.801a3.795 3.795 0 012.863 0 3.46 3.46 0 011.182.8c.343.362.614.787.796 1.252a4.602 4.602 0 010 3.22 3.838 3.838 0 01-.796 1.26v.008z" fill="#4C36A5"></path><path d="M101.351 18.857a5.357 5.357 0 01-2.18-.459 5.743 5.743 0 01-3-3.068 5.75 5.75 0 01-.438-2.232V8.81h-1.638V5.958h1.638V.57h2.789v5.387h5.097V8.81h-5.097v4.296a2.899 2.899 0 00.82 2.044c.258.263.564.474.9.62.35.153.728.23 1.11.225h2.267v2.862h-2.268z" fill="#4C36A5"></path><path fill-rule="nonzero" d="M106.283 18.857V5.945h2.846v12.912h-2.846zm1.425-14.865a1.915 1.915 0 01-.777-.158 2.021 2.021 0 01-1.06-1.067 1.997 1.997 0 010-1.552 2.02 2.02 0 01.427-.625 2.03 2.03 0 01.633-.432 1.988 1.988 0 011.554 0 2.002 2.002 0 011.071 2.623 2.034 2.034 0 01-1.071 1.067c-.247.101-.511.15-.777.144z" fill="#4C36A5"></path><path d="M125.765 18.857v-8.271a1.991 1.991 0 00-.154-.778 2.047 2.047 0 00-.44-.646 1.967 1.967 0 00-1.407-.586 1.9 1.9 0 00-1.385.59c-.18.182-.324.398-.425.634a2.02 2.02 0 00-.152.778v8.28h-2.83v-8.272c0-1.105-.886-2-1.978-2a1.9 1.9 0 00-1.384.59 2.05 2.05 0 00-.437.624 2.02 2.02 0 00-.152.778v8.28h-2.83V6.373a.42.42 0 01.29-.402.413.413 0 01.467.162l.664.97.22-.186a5.13 5.13 0 011.481-.89 4.577 4.577 0 011.671-.314 4.665 4.665 0 011.719.332 3.45 3.45 0 011.442 1.13l.231.298.221-.304c.183-.255.403-.48.651-.67a3.63 3.63 0 01.78-.456c.273-.115.56-.197.852-.244.292-.051.589-.077.886-.078a4.67 4.67 0 011.873.38c.57.245 1.09.598 1.528 1.04a4.902 4.902 0 011.404 3.452v8.263h-2.806z" fill="#4C36A5"></path><path fill-rule="nonzero" d="M137.697 19.047a6.3 6.3 0 01-4.564-1.913 6.677 6.677 0 01-1.387-2.161 7.318 7.318 0 01-.507-2.769 7.553 7.553 0 01.508-2.82 6.238 6.238 0 013.437-3.553 6.408 6.408 0 016.761 1.15c.337.3.643.637.912 1.003l-6.436 7.946.391.128c.148.048.3.08.454.095.137.014.278.02.419.02a3.6 3.6 0 001.03-.15c.33-.102.646-.25.939-.438a3.536 3.536 0 001.152-1.218l2.022 2.082a6.438 6.438 0 01-.893.977c-.385.346-.81.643-1.264.885a6.233 6.233 0 01-2.974.736zm0-10.805a3.585 3.585 0 00-1.407.281 3.367 3.367 0 00-1.153.803c-.334.36-.595.786-.767 1.251a4.513 4.513 0 00-.278 1.627c0 .135 0 .287.02.452a5.565 5.565 0 00.174 1.013c.046.165.111.323.195.471l.2.386 4.401-5.985-.356-.134a2.259 2.259 0 00-.528-.13 3.447 3.447 0 00-.501-.035zM45.953 6.277l-.936 1.23a6.187 6.187 0 00-2.353-1.683 6.733 6.733 0 00-2.57-.49 6.356 6.356 0 00-2.55.518 6.554 6.554 0 00-3.502 3.62 7.182 7.182 0 00-.518 2.75 7.098 7.098 0 00.516 2.717 6.608 6.608 0 003.506 3.62 6.458 6.458 0 005.11 0 6.755 6.755 0 001.126-.629c-.09 1.79-1.554 3.195-3.329 3.196h-1.809V24h1.5c3.602 0 6.523-2.948 6.523-6.585V6.52a.402.402 0 00-.271-.378.396.396 0 00-.443.135zm-3.247 8.815a3.62 3.62 0 01-2.612 1.092 3.417 3.417 0 01-1.44-.31 3.711 3.711 0 01-1.17-.836 3.964 3.964 0 01-.776-1.257 4.26 4.26 0 01-.283-1.56 4.473 4.473 0 01.283-1.62c.176-.466.44-.893.777-1.257.33-.352.732-.63 1.177-.815a3.78 3.78 0 012.863 0c.446.186.848.463 1.181.815.343.363.613.789.797 1.255.186.484.282.998.285 1.516v.202a4.334 4.334 0 01-.285 1.514c-.18.47-.451.898-.797 1.261z" fill="#4C36A5"></path></g></g></svg>