<svg xmlns:xlink="http://www.w3.org/1999/xlink" class="logo logo-citadel" role="img" viewBox="0 0 117 15" xmlns="http://www.w3.org/2000/svg" width="117"  height="15" ><path d="M0 14.355h26.736v-3.852H0v3.852zm0-9.532h5.35V.975H0v3.848zm10.695 0h5.35V.975h-5.35v3.848zm10.695 0h5.346V.975H21.39v3.848zM12.908 9.59H0V5.741h12.908v3.848zm13.828 0H13.83V5.741h12.907v3.848zm20.224 4.315c1.769-.06 2.16-.395 2.16-1.12V2.608c0-.725-.391-1.078-2.16-1.138v-.432h6.184v.432c-1.768.06-2.158.413-2.158 1.138v10.176c0 .725.39 1.06 2.158 1.12v.45H46.96v-.45zm10.346 0c1.746-.06 2.275-.395 2.275-1.12V1.587H58.6c-1.649 0-2.493.012-3.455 2.429l-.431-.041.116-2.937h11.345l.138 2.937-.431.04c-.883-2.261-1.747-2.428-3.456-2.428h-1.002v11.197c0 .725.533 1.06 2.279 1.12v.45h-6.399v-.45h.002zm35.237 0c1.705-.06 2.14-.395 2.14-1.12V2.608c0-.725-.436-1.078-2.14-1.138v-.432h10.796l.057 2.933-.432.019c-.823-2.378-1.491-2.381-3.729-2.381h-2.689v5.558h1.198c1.55 0 2.237-.353 2.748-2.458h.392v5.464h-.392c-.51-2.104-1.197-2.439-2.748-2.439h-1.198v5.943h2.689c2.631 0 3.514.07 4.378-2.445l.432.022-.098 3.1H92.543v-.45zm13.503 0c1.709-.06 2.14-.395 2.14-1.12V2.608c0-.725-.431-1.078-2.14-1.138v-.432h6.046v.432c-1.746.06-2.042.395-2.042 1.138v11.069h1.964c2.59 0 3.514-.776 4.456-3.643l.432.019-.157 4.302h-10.699v-.45zM84.215 13.7h-1.453V1.587h1.434c3.572 0 5.34 1.552 5.34 5.993 0 4.359-1.141 6.12-5.321 6.12m.195-12.662h-5.327v.451c1.429.095 1.816.444 1.816 1.12v10.175c0 .675-.387 1.01-1.816 1.099v.472h5.507c4.946 0 7.082-3.321 7.082-6.895 0-3.731-2.452-6.422-7.262-6.422m-15.152 7.7l2.16-5.559h.078l1.923 5.558h-4.161zm7.36 3.378L72.458.722h-.665l-4.086 10.233c-.784 1.946-1.333 2.672-2.65 2.987v.413h4.419v-.413c-1.75-.294-1.945-.726-1.12-2.867l.688-1.789h4.573l1.06 3.066c.39 1.1.116 1.493-1.67 1.59v.413h5.53v-.473c-1.181-.218-1.506-.656-1.919-1.766zM40.84 1.256c-2.317 0-4.476 2.04-4.476 6.52 0 4.26 2.59 6.027 4.847 6.027a4.202 4.202 0 001.968-.514c.608-.334 1.163-.791 1.557-1.369.277-.403.476-.814.652-1.309l.436.133c-.221.71-.527 1.403-.978 2a4.828 4.828 0 01-1.626 1.378c-.182.092-.37.173-.562.243-.212.077-.43.14-.652.185a6.44 6.44 0 01-1.323.14c-3.79 0-6.46-2.732-6.46-6.835 0-4.067 3.005-7.132 6.831-7.132 1.394 0 2.512.374 3.338.826l.687-.01.142 1.287.268 2.237h-.41c-.904-2.435-2.257-3.807-4.24-3.807" fill="#002E6C" fill-rule="nonzero"></path></svg>