<svg xmlns:xlink="http://www.w3.org/1999/xlink" class="logo logo-one-medical" role="img" viewBox="0 0 124 16" xmlns="http://www.w3.org/2000/svg" width="124"  height="16" ><path d="M9.722 8.163c-.741 0-1.36.618-1.36 1.36a1.359 1.359 0 102.72 0c0-.742-.618-1.36-1.36-1.36zM5.644 4.08c-.742 0-1.36.619-1.36 1.36a1.359 1.359 0 102.72 0c0-.741-.619-1.36-1.36-1.36zm0 8.183c-.742 0-1.36.619-1.36 1.36 0 .743.618 1.361 1.36 1.361.762 0 1.36-.618 1.36-1.36 0-.763-.619-1.36-1.36-1.36zm0-4.101c-.742 0-1.36.618-1.36 1.36 0 .742.618 1.36 1.36 1.36.762 0 1.36-.618 1.36-1.36 0-.742-.619-1.36-1.36-1.36zm-4.1 0c-.761 0-1.359.618-1.359 1.36 0 .763.618 1.36 1.36 1.36.741 0 1.36-.618 1.36-1.36 0-.742-.598-1.36-1.36-1.36zm119.944 6.822h2.287V.185h-2.287v14.8zm-25.13 0h2.266V4.081h-2.266v10.904zM97.471 0c-.742 0-1.36.618-1.36 1.36 0 .742.618 1.36 1.36 1.36.762 0 1.36-.618 1.36-1.36C98.85.598 98.232 0 97.47 0zm19.753 10.883c0 1.732-.988 2.804-2.574 2.804-1.278 0-1.978-.701-1.978-1.752 0-1.196.824-1.938 2.637-1.938h1.915v.886zm-2.204-7.132c-1.792 0-3.048.619-3.996 1.443v1.711c.927-1.03 2.08-1.546 3.399-1.546 1.73 0 2.822.948 2.822 2.907v.432h-2.06c-3.234 0-4.8 1.34-4.8 3.278 0 1.855 1.443 3.277 3.502 3.277 1.669 0 2.802-.845 3.358-2.061v1.773h2.266V8.183c-.02-2.803-1.648-4.432-4.49-4.432zM74.71 8.163c.267-1.732 1.256-2.927 2.904-2.927 1.524 0 2.554.989 2.595 2.927h-5.5zm2.966-4.412c-3.317 0-5.459 2.37-5.459 5.69 0 3.524 2.43 5.853 5.891 5.853 1.73 0 3.152-.597 4.038-1.463v-1.402c-.824.804-2.122 1.258-3.42 1.258-2.348 0-3.975-1.423-4.099-4.205h7.869V8.76c-.02-3.153-1.895-5.009-4.82-5.009zm28.528 9.936c-2.43 0-3.749-1.814-3.749-4.185 0-2.432 1.422-4.102 3.688-4.102 1.215 0 2.224.454 3.11 1.526V5.215c-.803-.886-2.019-1.443-3.584-1.443-3.317 0-5.644 2.515-5.644 5.792 0 3.257 2.348 5.772 5.623 5.772 1.38 0 2.637-.454 3.749-1.567v-1.505c-.762.887-1.977 1.423-3.193 1.423zm-17.282-.042c-1.812 0-3.007-1.607-3.007-4.06 0-2.494 1.215-4.185 3.09-4.185 1.915 0 3.069 1.67 3.069 4.082 0 2.453-1.277 4.163-3.152 4.163zm3.11-7.523c-.7-1.505-1.935-2.37-3.563-2.37-2.801 0-5.005 2.514-5.005 5.874 0 3.298 2.06 5.668 4.779 5.668 1.874 0 3.213-1.113 3.79-2.576v2.247h2.266V.165h-2.266v5.957zm-58.704-2.37c-1.792 0-2.987.989-3.584 2.494V4.08h-2.266v10.904h2.266V8.987c0-2.04 1.01-3.34 2.801-3.34 1.627 0 2.307.97 2.307 3.01v6.328h2.266V8.183c0-2.803-1.504-4.432-3.79-4.432zM20.598 13.79c-1.854 0-2.987-1.67-2.987-4.246 0-2.598 1.133-4.267 2.987-4.267 1.895 0 3.028 1.67 3.028 4.267 0 2.576-1.112 4.246-3.028 4.246zm0-10.039c-3.13 0-5.438 2.515-5.438 5.793 0 3.277 2.287 5.771 5.438 5.771 3.193 0 5.48-2.494 5.48-5.771 0-3.278-2.287-5.793-5.48-5.793zM40.97 8.163c.288-1.732 1.256-2.927 2.925-2.927 1.503 0 2.533.989 2.575 2.927h-5.5zm2.966-4.412c-3.316 0-5.438 2.37-5.438 5.69 0 3.524 2.41 5.853 5.87 5.853 1.73 0 3.152-.597 4.058-1.463v-1.402c-.844.804-2.121 1.258-3.419 1.258-2.369 0-3.996-1.423-4.099-4.205h7.848V8.76c-.02-3.153-1.895-5.009-4.82-5.009zm23.544 0c-1.504 0-2.657.866-3.296 2.31-.474-1.464-1.648-2.31-3.09-2.31-1.462 0-2.492.866-3.028 2.268V4.06H55.78v10.904h2.286V8.45c0-1.67.845-2.844 2.204-2.844 1.277 0 1.937.865 1.937 2.535v6.823h2.265v-6.7c0-1.566.845-2.658 2.225-2.658 1.277 0 1.874.865 1.874 2.597v6.76h2.266V7.793c.02-2.515-1.297-4.04-3.357-4.04z" fill="#005450" fill-rule="nonzero"></path></svg>