<svg xmlns:xlink="http://www.w3.org/1999/xlink" class="logo logo-coderpad-wordmark" role="img" viewBox="0 0 450 76" xmlns="http://www.w3.org/2000/svg" width="450"  height="76" ><path class="coder" d="M42.7 19.2c-3-1.2-6.6-1.5-10.6-1.5-10.5 0-15.8 7.6-15.8 23.4 0 14.5 5.4 21.9 16.4 21.9 2.9 0 5.9-.6 8.6-1.6 3-1.2 5.4-2.2 7-3.3l2.2-1.6 5.2 8.7c-.1.1-.8.8-1 1.2-.5.3-1.6 1.4-3.3 2.7-1.6 1.2-3.6 2.2-5.2 3.1-1.8.9-4.2 1.6-6.9 2.4-2.9.8-5.4 1.2-8.2 1.2-9.8 0-17.2-3-22.6-8.7C3.3 61.2.6 52.9.6 41.9c0-11.1 3-19.8 8.9-26.2C15.4 9.4 23 6.1 33 6.1c3.3 0 7.1.3 10.6 1.2 3.6.9 6.6 1.5 8.5 2.2l3 1.2-.8 18H45l-2.3-9.5zM88 22c7.6 0 13.5 2.2 17.9 6.8 4.2 4.5 6.5 10.8 6.5 18.9 0 8.7-2.2 15.1-6.9 20.2s-10.8 7.4-18.6 7.4c-16 0-24.3-8.7-24.3-26.2 0-8.7 2.2-15.1 6.9-19.8C73.6 24.2 80.2 22 88 22zm-.6 10.8c-3.6 0-6.5 1.2-8 3.6-1.5 2.4-2.7 6.3-2.7 12.1 0 5.4.8 9.6 2.2 12 1.6 2.7 4.2 3.8 7.6 3.8 3.6 0 6-1.2 7.6-3.8 1.6-2.4 2.4-6.8 2.4-12.3 0-5.2-.8-9-2.2-11.4-1-2.7-3.4-4-6.9-4zm86 40.9l-20.1.8-.8-5.1c-3.9 3.9-8.9 6-14.4 6-6.6 0-11.4-2.2-14.9-6.8-3.3-4.5-4.8-10.6-4.8-18.9 0-9 2.2-15.9 6.8-20.9 4.5-4.8 11.2-7.4 20.2-7.4 2.1 0 4.2.1 6.1.9v-12l-7.6-1.8V1l18-.8 2.1 2.1 1.6 1.6v60l7.6 1.8v8h.2zm-21.9-15V34.4c-1.6-.9-4.2-1.5-7.4-1.5-7.4 0-11.1 5.4-11.1 16.2 0 10.2 3 15.1 9.1 15.1 1.6 0 3.6-.3 5.1-1.5 1.6-.9 2.7-1.8 3.3-2.7l1-1.3zm73.5-7.3l-31.6.3c.1 3.9 1.5 7.2 3.6 9.1 2.1 2.1 4.6 3.3 7.8 3.3 2.2 0 4.8-.3 7.5-1.2 2.7-.9 4.8-1.5 6.1-2.2l2.2-1.2 4.2 7.6c-.8.6-1.6 1.4-3 2.1-1.4.9-3.9 2.1-7.6 3.6-3.9 1.5-7.5 2.2-11.1 2.2-8.1 0-14.2-2.2-18.6-6.8-4.2-4.5-6.5-10.8-6.5-18.9 0-8.4 2.2-15.1 6.8-20.2 4.5-4.8 10.8-7.5 18.8-7.5 7 0 12.3 2.1 16 6 3.7 3.9 5.7 9.6 5.7 16.5l-.3 7.3zm-22.2-18.5c-2.7 0-4.6.9-6.5 2.7-1.8 1.8-2.7 4.2-3 7h17.1c0-6.2-2.4-9.7-7.6-9.7zm28.6-9.3l19.8-.8.8 6.6c.3-.6 1-1.4 2.1-2.1 1-.8 2.7-2.1 4.8-3.3 2.2-1.4 4.5-2.1 6.5-2.1 1.5 0 3 .1 4.5.5 1.5.3 2.7.6 3.1.9l.9.3-.8 18.1h-8.2l-1.5-8.2c-1.6 0-3.3.5-5.1 1.4-1.8.9-3 1.6-3.9 2.5l-1.4 1.4v25.5l9.1 2.2v7.6h-30.8v-7.6l7.6-2.2V33l-7.6-1.8.1-7.6z" fill="#FFFFFF"></path><g class="pad" fill="#FFFFFF"><path d="M308.2 65.9v8.2h-29.1v-8.2l7-2.2V18.3l-7-2.9V7.6l21.9-.5h9.2c7.3 0 12.9 1.6 17.1 5.4 4.2 3.6 6.2 8.4 6.2 14.9 0 7.8-2.2 13.8-7.2 17.9-4.7 3.9-11.4 6-20.2 6h-5.2V64l7.3 1.9zm-7.3-47.5v21.3h5.1c3.9 0 7.2-.9 9.2-2.9 2.1-1.8 3.2-4.5 3.2-7.8 0-3.1-.9-5.9-2.7-7.6-1.8-1.7-4.2-3-7.3-3h-7.5zm88.6 55.3l-18.9.8-1.7-6.1c-.6.3-1.3 1.2-2.2 2.1-.9.9-2.8 1.8-5.7 3.1-2.8 1.4-5.2 2.1-7.7 2.1-4.7 0-8.2-1.4-10.8-3.9-2.7-2.5-3.9-6.3-3.9-11.1 0-10.5 7.7-15.8 23-15.8h6.6v-5.2c0-4.8-2.4-7-7.3-7-1.5 0-2.8.1-4.3.3-1.5.2-2.4.5-3.2.8l-.9.1L351 40h-8.5l-.8-14.2c7.7-2.7 14.7-3.9 20.7-3.9 7.3 0 12.3 1.5 15.5 4.2 3 2.7 4.5 7.6 4.5 14.5v23.7l7 1.6.1 7.8zm-37-14.8c0 3.9 1.8 5.9 5.7 5.9 1.5 0 3-.5 4.7-1.5 1.7-1.2 3-1.8 3.9-2.9l1.5-1.4v-6.3h-5.4c-3.8 0-6.5.5-7.8 1.5-1.9.9-2.6 2.6-2.6 4.7zM449.5 73.7l-20.1.8-.9-5.1c-3.9 3.9-8.8 6-14.4 6-6.6 0-11.4-2.2-14.8-6.8-3.3-4.5-4.8-10.6-4.8-18.9 0-9 2.2-15.9 6.8-20.9 4.5-4.8 11.2-7.4 20.2-7.4 2.1 0 4.2.1 6.2.9v-12L420 8.5V1l17.8-.8 1.8 2.1 1.8 1.6v60l7.7 1.8.4 8zm-21.7-15V34.4c-1.7-.9-3.9-1.5-7.5-1.5-7.3 0-11.1 5.4-11.1 16.2 0 10.2 3 15.1 9.2 15.1 1.8 0 3.6-.3 4.8-1.5 1.7-.9 2.7-1.8 3.3-2.7l1.3-1.3z" fill="#FFFFFF"></path></g></svg>