<svg xmlns:xlink="http://www.w3.org/1999/xlink" class="logo logo-databricks" role="img" xmlns="http://www.w3.org/2000/svg" viewBox="0 0 802 120" width="802"  height="120" ><g stroke="null" fill="#5E5D5D"><path fill="#464547" d="M783.07 44.754c.264-.662.794-1.324 1.324-1.853.53-.53 1.191-.927 1.853-1.192.662-.265 1.457-.397 2.251-.397.795 0 1.59.132 2.251.397.662.265 1.324.662 1.854 1.192.53.53.927 1.191 1.324 1.853.265.662.53 1.457.53 2.384 0 .794-.133 1.589-.53 2.383-.265.662-.794 1.324-1.324 1.854s-1.192.927-1.854 1.192c-.662.264-1.456.397-2.25.397-.795 0-1.59-.133-2.252-.397-.662-.265-1.324-.662-1.853-1.192-.53-.53-.927-1.192-1.324-1.854-.265-.662-.53-1.456-.53-2.383s.132-1.59.53-2.384m.926 4.37c.265.662.53 1.192 1.06 1.589.397.397.927.794 1.589 1.06.53.264 1.191.396 1.986.396.662 0 1.324-.132 1.853-.397.53-.265 1.06-.662 1.59-1.06a4.761 4.761 0 001.059-1.588c.264-.662.397-1.324.397-1.986s-.133-1.324-.397-1.986c-.265-.662-.53-1.192-1.06-1.59a4.761 4.761 0 00-1.589-1.059c-.53-.264-1.191-.397-1.853-.397-.662 0-1.324.133-1.986.397-.662.265-1.06.662-1.59 1.06a4.761 4.761 0 00-1.059 1.589c-.264.662-.397 1.324-.397 1.986s.133 1.324.397 1.986m4.9-5.429c.794 0 1.456.133 1.853.53.397.265.53.794.53 1.456 0 .662-.133 1.06-.53 1.324-.397.265-.794.398-1.324.53l1.986 3.045h-1.191l-1.854-2.913h-1.192v2.913h-.927v-6.885h2.649zm-.53 3.046h.662c.265 0 .397 0 .53-.133.132-.132.264-.132.397-.397.132-.133.132-.397.132-.662s0-.397-.132-.53c-.133-.132-.265-.265-.397-.265-.133-.132-.265-.132-.53-.132h-1.986v2.25h1.324v-.131z"></path><path d="M.132 40.252L0 40.385v17.08l18.14 9.402L0 76.267v17.214l48.992 25.555h5.031l48.992-25.555V76.268l-18.14-9.401 18.14-9.401V40.385l-.133-.133-51.375-26.349L.132 40.253z" fill="#DC2327"></path><path d="M51.507 84.345L18.14 66.867 0 76.267l51.507 26.88 51.508-26.88-18.14-9.4-33.368 17.478z" fill="#F0562C"></path><path d="M0 40.385l51.507 26.879 51.508-26.88-51.508-26.481L0 40.385z" fill="#F0562C"></path><path d="M176.634 49.786h.397s-.397-4.502-.397-5.032V9.136H165.91V0h21.848v101.426h10.195v9.136h-18.67l-1.589-10.328h-.53s-6.884 11.387-23.568 11.387c-18.273 0-32.043-12.314-32.043-35.75 0-22.907 14.83-35.619 32.175-35.619 17.61.133 22.907 9.534 22.907 9.534m0 41.047V59.717c-1.986-2.913-7.812-9.931-20.788-9.931-11.122 0-23.304 8.21-23.304 26.217 0 18.008 10.99 26.35 23.436 26.35 8.342 0 16.816-3.973 20.656-11.52m78.122 8.21s-6.091 12.578-26.35 12.578c-14.3 0-23.833-8.474-23.833-19.994 0-12.843 12.181-19.596 31.645-19.596h17.479v-5.826c0-11.917-6.886-16.949-19.465-16.949-12.049 0-18.14 5.826-18.14 13.506v1.457h-10.195v-3.443c0-10.063 8.871-20.656 28.6-20.656 18.67 0 30.322 8.342 30.322 26.35v34.69h8.342v9.137H256.61l-1.325-11.52h-.53v.265zm-1.192-18.935h-16.816c-12.182 0-21.318 3.575-21.318 11.52 0 6.885 6.356 11.254 15.227 11.254 16.022 0 22.907-12.05 22.907-12.05V80.109zm42.504-57.201v18.537h21.98v8.872h-21.98v37.34c0 9.797 4.369 14.564 11.52 14.564 7.679 0 12.446-2.25 12.446-2.25v9.4s-5.694 2.384-14.3 2.384c-13.374 0-20.921-7.68-20.921-23.437V50.316H274.22v-8.872h10.593l1.986-18.537h9.269zm80.77 76.135s-6.092 12.58-26.35 12.58c-14.3 0-23.834-8.475-23.834-19.995 0-12.843 12.182-19.596 31.646-19.596h17.478v-5.826c0-11.917-6.885-16.949-19.464-16.949-12.05 0-18.14 5.826-18.14 13.506v1.457h-10.196v-3.443c0-10.063 8.872-20.656 28.6-20.656 18.67 0 30.322 8.342 30.322 26.35v34.69h8.342v9.137h-16.816l-1.324-11.52h-.265v.265zm-1.192-18.934H358.83c-12.182 0-21.318 3.575-21.318 11.52 0 6.885 6.355 11.254 15.227 11.254 16.021 0 22.907-12.05 22.907-12.05V80.109zm39.855 20.126l-1.721 10.328h-8.475V9.136H395.11V0h21.318v44.754c0 .53-.398 5.032-.398 5.032h.398s6.223-9.534 23.171-9.534c17.214 0 32.043 12.712 32.043 35.619 0 23.436-13.77 35.75-31.91 35.75-16.816 0-23.702-11.387-23.702-11.387h-.53zm.927-40.65V90.7c3.707 7.548 12.314 11.52 20.788 11.52 12.314 0 23.304-8.474 23.304-26.35 0-18.14-12.05-26.216-23.172-26.216-12.71 0-18.802 6.885-20.92 9.93m109.37-7.944c-1.589-.53-4.37-1.06-7.812-1.06-17.213 0-20.788 20.524-20.788 20.524v30.454h11.254v9.136h-32.705v-9.136h10.196V50.58h-10.196v-9.136h18.67l1.06 17.61h.396s3.443-18.67 22.245-18.67c3.178 0 5.826.398 7.548.795v10.46h.132zm31.513 49.786h9.931v9.136h-31.249v-9.136h10.196V50.58h-10.196v-9.136h21.318v59.982zm-6.09-72.56c-4.767 0-8.607-3.84-8.607-8.872a8.59 8.59 0 018.607-8.607c4.899 0 8.871 3.84 8.871 8.607 0 5.031-3.972 8.871-8.871 8.871m30.454 47.138c0 18.14 11.652 26.35 24.893 26.35 16.154 0 22.642-7.548 22.642-7.548l3.84 8.077s-7.68 8.872-27.277 8.872c-20.656 0-35.22-12.712-35.22-35.751 0-24.098 13.24-35.618 34.426-35.618 21.715 0 29.527 11.917 29.527 24.76v3.708h-10.195v-2.251c0-10.328-5.959-16.948-19.465-16.948-13.77 0-23.171 7.017-23.171 26.349m78.651-5.694h17.213l16.551-19.993h-8.606v-8.872h31.38v8.872H706.14L686.013 74.81l21.186 27.012h10.593v8.871h-16.816l-24.364-31.646h-16.286v22.378h9.93v9.268h-31.513v-9.268h10.46V9.136h-10.46V0h21.583v70.31zm72.825 17.876v1.589c0 7.15 5.959 12.71 18.537 12.71 12.712 0 18.405-4.104 18.405-10.989 0-7.15-9.136-9.534-19.199-11.255-12.446-2.25-26.35-5.429-26.35-20.523 0-11.917 11.255-19.465 26.747-19.465 20.524 0 28.071 8.475 28.071 18.935v5.032h-10.328v-3.046c0-7.415-4.899-11.784-17.213-11.784-8.077 0-16.154 3.31-16.154 10.593 0 8.209 9.798 9.665 19.861 11.52 13.109 2.515 25.688 6.487 25.688 20.125 0 11.123-8.342 19.994-29.13 19.994-21.318 0-29.263-9.533-29.263-19.332v-4.37h10.328v.266z" fill="#444545"></path></g></svg>