<svg xmlns:xlink="http://www.w3.org/1999/xlink" class="logo logo-lever" role="img" xmlns="http://www.w3.org/2000/svg" viewBox="0 0 169.001 48" width="200"  height="57" ><path fill="#C3C6CC" d="M47.55 45.47l-9.04-9.03a1.53 1.53 0 00-2.13 0l-9.03 9.03A1.47 1.47 0 0028.4 48h18.1a1.47 1.47 0 001.07-2.53z"></path><path fill="#E1E3E6" d="M47.85 13l-2.83-8.4a2.96 2.96 0 00-.6-1.02L.34 47.66a1.35 1.35 0 00.95.34h12.5a2.66 2.66 0 001.9-.77l31.55-31.56a2.53 2.53 0 00.6-2.66z"></path><path fill="#C3C6CC" d="M43.4 2.98L35 .15a2.53 2.53 0 00-2.67.6L.77 32.3A2.67 2.67 0 000 34.2v12.5a1.35 1.35 0 00.34.96L44.42 3.58a2.97 2.97 0 00-1.03-.6z"></path><path fill="#262933" d="M163.9 23.32a2.5 2.5 0 01-.32 1.4 2.06 2.06 0 01-.88.75 3.6 3.6 0 01-1.25.3q-.7.05-1.4.05h-1.62v-4.96h1.8a12.82 12.82 0 011.3.07 3.64 3.64 0 011.2.3 2.08 2.08 0 01.85.76 2.37 2.37 0 01.33 1.32zm.6 12.68h4.5l-2.46-3.63q-.63-.93-1.28-1.8-.65-.86-1.08-1.42a3.04 3.04 0 00-.8-.87 4.86 4.86 0 003.18-1.55 4.92 4.92 0 001.24-3.47 4.98 4.98 0 00-1.86-4 5.1 5.1 0 00-2.1-.98 14.04 14.04 0 00-3.05-.28h-6.06v18h3.7v-7.5a1.8 1.8 0 011.02.28 3.93 3.93 0 01.73.63 15 15 0 01.9 1.26q.55.8 1.62 2.44zm-31.25 0h11.57v-3.13h-7.8v-4.8h5.84v-2.95h-5.9v-4.16h7.06l.53-2.96h-11.3zm-14.5 0l7-18h-3.9l-3.55 9.35a13.17 13.17 0 00-.45 1.3l-.38 1.38q-.16.65-.26 1.08l-.1.44-.13-.43q-.1-.46-.26-1.1-.16-.65-.38-1.4-.2-.72-.4-1.28L112.6 18h-4.12l6.88 18zM89.5 36h11.57v-3.13h-7.8v-4.8h5.84v-2.95h-5.88v-4.16h7.05l.53-2.96H89.5zm-10.13 0l.7-3.06h-7.3V18H69v18z"></path></svg>