<svg xmlns:xlink="http://www.w3.org/1999/xlink" class="logo logo-snowflake" role="img" viewBox="0 0 184 44" xmlns="http://www.w3.org/2000/svg" width="184"  height="44" ><g fill="#29B5E8" fill-rule="nonzero"><path d="M37.262 33.66l-9.176-5.3a2.695 2.695 0 00-4.031 2.598v10.358a2.687 2.687 0 005.37 0V35.36l5.141 2.97a2.696 2.696 0 002.696-4.669M14.441 22.3a2.642 2.642 0 00-1.316-2.327l-9.176-5.297a2.633 2.633 0 00-1.312-.352c-.942 0-1.817.504-2.285 1.317a2.636 2.636 0 00.964 3.597l5.29 3.051-5.29 3.055A2.603 2.603 0 00.09 26.94c-.184.68-.09 1.391.262 2a2.641 2.641 0 003.597.965l9.176-5.297a2.648 2.648 0 001.316-2.308M6.031 10.922l9.176 5.297c1.07.62 2.39.418 3.234-.407a2.675 2.675 0 00.868-1.976V3.219a2.687 2.687 0 10-5.371 0v6.043L8.727 6.254a2.696 2.696 0 10-2.696 4.668M26.664 22.73c0 .204-.117.485-.262.633L22.766 27c-.145.145-.43.262-.633.262h-.926c-.203 0-.488-.117-.633-.262l-3.64-3.637a1.04 1.04 0 01-.262-.633v-.925c0-.207.117-.489.262-.633l3.64-3.64c.145-.145.43-.262.633-.262h.926c.203 0 .488.117.633.261l3.636 3.64c.145.145.262.427.262.634v.925zm-3.246-.445v-.039a.77.77 0 00-.191-.465l-1.075-1.07a.734.734 0 00-.464-.195h-.04a.752.752 0 00-.464.195l-1.07 1.07a.752.752 0 00-.192.465v.04c0 .151.086.359.191.464l1.07 1.074a.77.77 0 00.465.192h.04c.152 0 .359-.086.464-.192l1.075-1.074a.752.752 0 00.191-.465zM28.086 16.219l9.176-5.297a2.696 2.696 0 10-2.696-4.668l-5.14 2.969V3.219a2.687 2.687 0 10-5.371 0v10.406a2.696 2.696 0 004.031 2.594M17.047 28.047a2.674 2.674 0 00-1.84.312L6.031 33.66a2.691 2.691 0 00-.988 3.68 2.693 2.693 0 003.684.988l5.21-3.008v5.996a2.687 2.687 0 005.372 0V30.7c0-1.34-.98-2.449-2.262-2.652M42.996 15.61a2.692 2.692 0 00-3.683-.989l-9.176 5.297a2.699 2.699 0 00-1.348 2.383 2.69 2.69 0 001.348 2.36l9.176 5.3a2.697 2.697 0 102.695-4.672l-5.195-3 5.195-3a2.688 2.688 0 00.988-3.68M183.996 21.668V21.77c0 .5-.418.87-.934.87h-12.89c.023.305.062.602.125.895.598 2.793 2.988 4.871 5.828 4.895h.75c.059 0 .117 0 .18-.004.054 0 .11-.004.164-.008.004 0 .008 0 .011-.004.942-.074 1.891-.453 2.739-1.062h.004c.043-.032.09-.067.132-.102.008-.004.016-.012.028-.02l.113-.09c.016-.011.027-.023.043-.035.031-.023.063-.05.094-.078l.062-.05c.024-.024.047-.047.075-.067l.074-.07a.75.75 0 00.058-.055c.032-.027.059-.055.09-.082.016-.015.031-.035.047-.05l.094-.094.043-.043.094-.106c.015-.012.027-.027.039-.043.035-.035.066-.07.097-.105.012-.016.028-.032.04-.047.03-.04.058-.074.09-.11l.046-.058c.027-.035.055-.067.078-.098.024-.031.043-.058.063-.086.02-.027.039-.05.058-.078.031-.043.063-.086.09-.129a7.76 7.76 0 00.254-.39s0-.004.004-.008c.016-.028.035-.051.055-.078a.105.105 0 01.027-.032c.012-.02.027-.03.039-.046l.035-.036c.016-.011.028-.023.043-.035.012-.011.024-.023.04-.031a.387.387 0 01.066-.043.357.357 0 01.05-.031c.02-.008.036-.016.051-.024.016-.007.031-.011.043-.02.024-.007.043-.01.067-.019l.03-.011a.872.872 0 01.473.008h.008c.031.011.067.019.098.035.008.003.016.003.023.007a.768.768 0 01.098.051l.016.008c.43.312.562.86.3 1.309l-.004.003c-.03.051-.062.102-.093.149l-.024.035c-.914 1.39-2.156 2.5-3.543 3.164-.03.012-.058.027-.09.043-.003 0-.011.004-.015.004a6.753 6.753 0 01-2.063.59c-.015 0-.03.004-.047.004-.062.008-.125.015-.187.02-.035 0-.07.003-.11.007-.042 0-.09.004-.132.008-.086 0-.172.004-.258.004h-.758c-4.336-.031-7.828-3.649-7.828-8.078 0-4.504 3.516-8.141 7.887-8.141a7.586 7.586 0 014.496 1.465c.066.047.129.098.191.144.032.028.067.055.102.082.031.024.062.051.094.075 1.644 1.37 2.754 3.43 2.937 5.812v.008zm-13.7-.867h11.669c-.578-2.813-2.996-4.848-5.79-4.848-2.843 0-5.241 1.996-5.878 4.848zM151.04 14.355a.93.93 0 01.265.567c0 .031.004.062.004.094v14.347c0 .512-.43.938-.938.938a.945.945 0 01-.934-.938v-1.906a8.02 8.02 0 01-1.171 1.16c-.012.012-.024.02-.036.031-.039.032-.082.063-.12.09-1.29.992-2.856 1.563-4.493 1.563-2.637 0-4.957-1.403-6.34-3.528l-.039-.05a13.76 13.76 0 00-.12-.203c-.028-.043-.052-.086-.079-.13a1.524 1.524 0 01-.074-.136 5.285 5.285 0 01-.113-.203c-.012-.024-.02-.047-.032-.07a8.326 8.326 0 01-.882-3.376 7.223 7.223 0 010-.828 8.36 8.36 0 01.882-3.379c.012-.02.02-.043.032-.066.035-.066.074-.137.113-.203.023-.047.047-.094.074-.137.024-.043.05-.086.078-.129l.121-.203.04-.05c1.382-2.126 3.702-3.528 6.34-3.528 1.78 0 3.464.652 4.804 1.79.367.308.707.648 1.016 1.023v-1.88c0-.03 0-.062.003-.093a.93.93 0 01.266-.567v-.003c.016-.016.035-.028.05-.043l.016-.016c.012-.012.028-.02.04-.027.011-.008.023-.02.035-.028a.082.082 0 00.023-.015c.02-.008.035-.02.055-.032.004 0 .008-.004.012-.004l.07-.035h.004a.87.87 0 01.172-.05c.004 0 .011-.004.015-.004l.078-.012c.032 0 .063-.004.094-.004.035 0 .066.004.098.004l.078.012c.004 0 .008.004.016.004a.87.87 0 01.171.05h.004c.024.012.047.024.067.036.007 0 .011.003.015.003a.357.357 0 00.051.032c.008.007.02.011.027.015.012.008.024.02.036.028.011.007.023.015.035.027.008.004.011.012.02.016.015.015.034.027.046.043l.004.003zm-7.423 14.075c3.207 0 5.82-2.797 5.82-6.239 0-3.457-2.613-6.27-5.82-6.27-3.183 0-5.82 2.81-5.82 6.27 0 .11.004.215.008.32 0 .048.007.09.007.134.004.062.008.125.016.183.004.05.012.098.016.145.008.054.011.113.02.168.007.043.015.082.019.12.012.063.02.126.031.188.008.031.016.059.02.086l.046.219a.22.22 0 00.016.047c.664 2.672 2.945 4.629 5.621 4.629zM127.559 7.316h-.254c-.032 0-.067 0-.098.004-.035-.004-.066-.004-.102-.004-.09 0-.18 0-.27.004-.015 0-.034.004-.05.004-.07 0-.14.004-.21.012h-.04c-.074.008-.144.012-.215.02-.007.003-.015.003-.023.003-.078.012-.152.02-.223.032h-.008a4.405 4.405 0 00-1.277.394c0 .004-.004.004-.008.004l-.168.094c-.011.004-.02.012-.031.02-.047.027-.094.054-.14.085-.02.012-.036.028-.051.04-.04.023-.075.05-.114.077-.027.024-.054.047-.082.067l-.07.058c-.043.04-.082.075-.121.114l-.024.023c-.046.051-.093.098-.14.149-.008.011-.016.023-.024.03-.039.044-.078.087-.113.13-.012.02-.027.039-.039.058a2.166 2.166 0 00-.113.153c-.031.047-.063.093-.09.14l-.012.02c-.254.418-.433.91-.547 1.504 0 .008 0 .02-.004.027-.015.074-.027.152-.039.23-.004.024-.007.047-.007.07a3.188 3.188 0 00-.04.325c-.007.055-.015.106-.019.164a42.33 42.33 0 00-.012.18c-.004.039-.004.078-.008.121l-.011.254c0 .023-.004.039-.004.058-.004.11-.004.223-.004.332v1.543h-1.945a.964.964 0 00-.352.06.908.908 0 00-.602.847.996.996 0 00.946 1.004h.008v.004h1.945v13.625c-.004.02 0 .035 0 .054v.035a.895.895 0 00.246.57l.004.005.062.058c.004.004.008.004.012.008.016.016.035.027.05.04.009.007.02.015.028.019a.063.063 0 00.028.015.966.966 0 00.523.153.641.641 0 00.09-.008.887.887 0 00.488-.207l.004-.004a.312.312 0 00.05-.051c.005-.004.013-.008.016-.012.016-.015.028-.03.04-.043a.921.921 0 00.218-.632V15.77h2.094v-.004h.008c.555-.028.96-.461.945-1v-.008c.004-.02 0-.04 0-.059v-.02a.864.864 0 00-.246-.538v-.004h-.004c-.02-.02-.035-.035-.055-.051-.007-.008-.015-.012-.02-.02-.015-.011-.026-.02-.042-.03l-.04-.028-.026-.016a.427.427 0 00-.075-.039.553.553 0 00-.07-.031c-.004-.004-.008-.004-.016-.008l-.07-.023c-.008 0-.016-.004-.023-.004-.024-.004-.043-.012-.067-.016-.011 0-.023 0-.035-.004-.016-.004-.035-.004-.055-.008h-.043c-.011 0-.023-.004-.035-.004h-2.125v-1.539-.03c.004-.079.004-.157.008-.231 0-.02 0-.043.004-.063 0-.066.004-.133.008-.195 0-.012.004-.027.004-.04.004-.073.011-.148.02-.218.073-.762.238-1.242.41-1.535.003-.008.003-.012.007-.02.012-.02.028-.039.04-.058a.326.326 0 01.03-.047c.004-.008.012-.024.02-.031.02-.028.04-.051.063-.075.246-.277.628-.445 1.183-.511.008 0 .012-.004.024-.004a.822.822 0 01.097-.008c.016-.004.035-.004.051-.008.031 0 .059-.004.09-.004.023 0 .043-.004.07-.004.028-.004.055-.004.082-.004.028 0 .055-.003.082-.003h.203c.032 0 .059-.004.09-.008.035.004.07.008.106.008h.254a.954.954 0 000-1.91M132.598 7.344s-.004-.004-.008-.004c-.02-.008-.035-.016-.059-.02-.008-.004-.02-.008-.031-.011l-.047-.012c-.016-.004-.031-.012-.043-.012-.02-.004-.035-.008-.055-.008-.015-.004-.027-.004-.042-.007-.032-.004-.067-.004-.098-.004a.947.947 0 00-.938.933v21.164c0 .512.43.938.938.938.031 0 .066 0 .097-.004l.016-.004.082-.012c.004 0 .012-.004.02-.004.023-.007.047-.011.07-.02.004 0 .008 0 .012-.003a.94.94 0 00.672-.89V8.198a.933.933 0 00-.586-.855M60.875 25.32c-.008-.054-.008-.105-.016-.156l-.011-.11c-.008-.042-.012-.081-.02-.124a6.821 6.821 0 01-.043-.22c-.012-.046-.02-.089-.031-.136l-.024-.074a.893.893 0 00-.046-.145c-.004-.02-.012-.039-.016-.054a2.708 2.708 0 00-.074-.192c-.028-.054-.051-.113-.078-.168-.004-.003-.004-.007-.008-.011a3.448 3.448 0 00-.926-1.14c0-.005 0-.005-.004-.005-.055-.043-.11-.09-.168-.133l-.008-.007c-.004 0-.007-.004-.011-.008-.036-.024-.07-.051-.102-.075-.48-.34-1.012-.609-1.785-.906l-.035-.011c-.012-.008-.028-.012-.04-.02-.437-.164-.89-.32-1.355-.473h-.004s-.004 0-.004-.004c-.007 0-.015-.003-.027-.007a3.45 3.45 0 00-.23-.075c-.157-.054-.317-.105-.477-.16-.113-.039-.234-.078-.379-.125-.039-.011-.133-.043-.21-.066-.005 0-.005-.004-.009-.004a22.85 22.85 0 01-1.129-.383c-.445-.164-.851-.34-1.183-.55a.085.085 0 01-.02-.012c-.453-.29-.765-.645-.84-1.11l-.003-.004a.822.822 0 01-.008-.097c-.004-.008-.004-.012-.004-.016-.004-.039-.004-.074-.004-.113 0-.055.004-.11.008-.16 0-.016 0-.028.004-.04l.011-.12c.004-.012.004-.024.008-.036l.024-.125c.004-.004.004-.011.007-.02.012-.046.024-.09.04-.132v-.004c.203-.605.683-1.055 1.25-1.371l.113-.059c.039-.02.074-.039.11-.054.058-.028.116-.055.175-.078.035-.016.066-.032.102-.043l.187-.07.102-.036c.062-.02.12-.039.183-.055.04-.011.074-.023.113-.03.06-.016.118-.028.172-.044l.118-.023c.062-.012.12-.024.175-.031a3.387 3.387 0 01.309-.035c.016-.005.031-.005.05-.008.087-.004.173-.008.255-.008.097 0 .195.004.289.008h.043c.691.043 1.25.21 1.71.433.036.016.07.035.106.05a5.125 5.125 0 01.191.105c.008.005.016.01.024.013.047.027.094.059.14.086a.012.012 0 00.008.004c.051.031.102.066.153.098 0 .004.004.004.004.007.05.032.097.063.144.098a12.965 12.965 0 01.492.383c.02.012.035.023.047.035a7.36 7.36 0 00.38.297 715.243 715.243 0 01.047.031c.026.02.058.04.085.059l.035.02.082.046.031.012a.894.894 0 00.09.039l.02.008c.035.012.07.023.105.027l.004.004a.573.573 0 00.23-.004c.008 0 .016-.004.024-.004.02-.004.043-.012.062-.015l.02-.012a.056.056 0 00.023-.008c.032-.016.063-.031.094-.05.008 0 .012-.005.016-.009a.917.917 0 00.097-.074l.004-.004c.028-.023.051-.05.075-.078a.387.387 0 00.043-.066c.003-.004.007-.008.007-.012.164-.273.07-.633-.218-1.023a.082.082 0 00-.016-.024l-.031-.043c-.664-.86-2.176-1.8-3.578-2.101-.008 0-.016 0-.024-.004l-.18-.035a2.03 2.03 0 00-.203-.027.302.302 0 00-.058-.009l-.145-.011c-.02-.004-.039-.004-.054-.008-.067 0-.13-.004-.192-.004-.101 0-.203 0-.3.004-.055 0-.11.004-.169.008-.039.004-.086.004-.125.004-.078.007-.152.011-.226.02-.02 0-.043 0-.063.003a5.052 5.052 0 00-.254.027h-.027c-.09.012-.176.024-.262.04h-.015a4.91 4.91 0 00-.254.042c-.004 0-.008.004-.016.004-.176.032-.347.07-.511.114-.004 0-.004.004-.004.004-.082.02-.164.043-.246.066-.079.023-.153.05-.223.074-.008 0-.012.004-.02.004-.07.027-.14.05-.21.078a3.057 3.057 0 00-.219.094c-.008.004-.02.004-.028.012-.058.023-.12.054-.175.082-.016.008-.028.011-.04.02a2.258 2.258 0 00-.168.085l-.042.024c-.051.027-.102.058-.153.09a.291.291 0 00-.047.027c-.066.039-.129.082-.191.12-.074.056-.149.106-.215.161-.008 0-.012.004-.012.008a4.224 4.224 0 00-.851.812c-.008.012-.02.024-.028.036-.027.043-.058.082-.086.12l-.058.094a1.999 1.999 0 00-.129.227l-.012.02c-.21.417-.332.898-.379 1.48 0 .008 0 .016-.004.023-.003.102-.011.203-.015.313 0 .082 0 .164.004.246v.035c.043 1.117.55 1.957 1.468 2.61.008.003.016.011.024.015l.117.082c.027.02.059.035.086.055.008.008.02.012.027.015.907.575 2.016.903 2.942 1.165.453.132.86.246.98.28.028.009.055.016.078.028.555.184.98.332 1.332.473.028.008.051.02.079.027.007.004.02.008.03.016a6.902 6.902 0 011.027.508c.372.23.657.48.849.753.008.008.012.016.015.024.02.023.036.047.047.074.012.016.02.027.028.043.011.02.023.04.03.059.013.02.02.043.032.062l.024.047c.007.023.02.047.027.074.004.012.012.028.016.043l.023.082.012.04a.68.68 0 01.02.085.139.139 0 01.007.04l.012.093c.004.012.004.024.004.035.004.047.007.09.007.137 0 .07-.003.137-.007.203 0 .02-.004.04-.004.059-.004.05-.012.101-.024.152 0 .016-.004.031-.007.047a1.98 1.98 0 01-.114.394c-.004.004-.004.008-.004.012-.027.059-.054.121-.086.176-.004.008-.004.012-.007.016a1.934 1.934 0 01-.243.359 3.039 3.039 0 01-.148.168c-.004 0-.004 0-.004.004a3.091 3.091 0 01-.344.293c-.004.004-.008.004-.008.008-.058.039-.117.082-.175.117a4.23 4.23 0 01-.344.195c-.04.02-.078.04-.121.059-.043.02-.09.043-.137.062l-.113.047c-.106.04-.207.078-.313.113-.015.004-.03.008-.047.016-.062.02-.125.035-.187.055l-.05.015c-.208.055-.411.098-.602.13h-.012c-.098.015-.191.027-.281.038-.035.004-.067.008-.102.008-.031.004-.062.004-.098.008a4.393 4.393 0 01-.222.008c-.145 0-.285-.004-.422-.012-.055 0-.11-.004-.164-.008-.074-.008-.152-.012-.223-.02a3.13 3.13 0 01-.199-.019 17.756 17.756 0 01-.168-.023c-.121-.02-.234-.035-.348-.059-.05-.012-.105-.02-.156-.031-.058-.016-.117-.028-.176-.043a2.736 2.736 0 01-.191-.05c-.043-.013-.09-.024-.129-.036a4.193 4.193 0 01-.312-.106l-.07-.023a7.18 7.18 0 01-.669-.29l-.031-.015c-.14-.07-.379-.203-.605-.332l-.063-.035a6.373 6.373 0 00-.453-.25c-.008-.004-.016-.008-.02-.008-.035-.015-.062-.03-.093-.043l-.028-.011a.926.926 0 00-.23-.063c-.024-.004-.047-.004-.07-.004-.008-.004-.016-.004-.024-.004a.559.559 0 00-.398.164.666.666 0 00-.075.075c-.004.007-.011.015-.02.023l-.038.05-.02.032c-.011.016-.023.031-.031.047a1023.578 1023.578 0 00-.04.082l-.01.031a.363.363 0 00-.016.051c-.004.012-.008.02-.008.031l-.012.059c0 .008-.004.015-.004.023-.004.028-.004.051-.004.075v.011c0 .031.004.059.012.09v.016c.008.023.012.05.02.074l.011.035c.008.02.012.043.024.063.004.011.007.02.011.027.051.117.133.238.239.355a3.234 3.234 0 00.43.383c.046.031.093.067.144.102.012.008.02.015.031.02.137.093.281.183.445.277.04.023.079.047.118.066.039.023.078.043.117.063.047.027.101.054.152.082.035.015.067.035.102.05a14.182 14.182 0 00.273.133c.09.043.18.082.27.117.039.016.074.032.113.047a9.063 9.063 0 003.004.602h.004c.031 0 .058 0 .09-.004h.21c.008 0 .016 0 .024-.004 1.48-.047 2.695-.43 3.73-1.188v-.003c1.149-.868 1.782-2.09 1.782-3.438 0-.086-.004-.172-.008-.254 0-.031-.004-.062-.004-.09M70.426 14.113h-.012c-1.82 0-3.539.742-4.781 2.055v-1.117c0-.516-.399-.938-.903-.938-.035 0-.066.004-.097.004a.93.93 0 00-.563.266c-.004 0-.004 0-.007.004-.012.015-.028.031-.04.047a.047.047 0 00-.02.02.215.215 0 00-.026.034c-.008.012-.016.024-.028.035l-.011.024c-.012.02-.024.039-.036.055 0 .003 0 .007-.004.011l-.035.07c-.02.06-.039.118-.05.176 0 .004 0 .008-.004.008l-.012.086c0 .031-.004.063-.004.098v14.508l-.012.062.047.04c0 .019.004.046.016.073l.004.016c.007.02.02.043.039.063.12.23.343.406.605.484l.02.004h.218c.036 0 .07 0 .106-.004.023-.004.047-.012.07-.016.012 0 .02 0 .032-.004.03-.007.062-.015.093-.027h.004a.806.806 0 00.399-.297l.011-.012a.624.624 0 00.133-.234c.004-.012.008-.02.008-.027.004-.004.004-.004.004-.008.015-.047.027-.094.039-.14l.004-.016v-8.782c.062-2.617 2.203-4.746 4.773-4.75h.008a4.751 4.751 0 014.746 4.746v8.633a.76.76 0 00.008.098.905.905 0 00.266.57c.015.016.03.028.046.043a.069.069 0 00.02.016c.012.012.023.02.035.027.012.012.024.02.035.028.012.003.02.007.028.015.015.012.035.02.05.031.004 0 .008.004.016.004.02.012.043.024.066.035h.004a.87.87 0 00.172.051c.008 0 .012.004.016.004l.078.012a.785.785 0 00.098.004c.03 0 .062 0 .093-.004l.079-.012c.003 0 .011-.004.015-.004a.907.907 0 00.176-.05l.07-.036c.004 0 .008-.004.012-.004l.055-.03c.007-.009.015-.013.023-.016a.215.215 0 00.035-.028c.012-.008.028-.015.04-.027.003-.004.011-.008.015-.016.016-.015.035-.027.05-.043v-.004a.889.889 0 00.266-.566c.004-.031.004-.063.004-.098V20.73c0-3.644-2.96-6.609-6.605-6.617M87.277 14.082c4.243 0 7.692 3.637 7.692 8.11 0 4.472-3.45 8.109-7.692 8.109-.132 0-.261-.004-.39-.012-.02 0-.035 0-.055-.004a4.674 4.674 0 01-.336-.027h-.012c-1.675-.184-3.242-.95-4.488-2.203-.05-.051-.105-.102-.152-.157-.004 0-.004-.003-.008-.003-.027-.028-.05-.06-.078-.09-.059-.063-.117-.13-.176-.196-.047-.05-.09-.109-.137-.164-.03-.043-.066-.086-.101-.129a4.278 4.278 0 01-.2-.265l-.023-.035a8.192 8.192 0 01-1.445-3.602c-.02-.121-.031-.242-.043-.363-.004-.012-.004-.028-.008-.043a4.852 4.852 0 01-.023-.336c-.004-.024-.004-.047-.004-.074a6.952 6.952 0 010-.813c0-.027 0-.05.004-.074.003-.113.011-.227.023-.336.004-.016.004-.031.008-.043.012-.121.023-.242.043-.363a8.192 8.192 0 011.445-3.602 7.078 7.078 0 01.223-.305c.031-.039.066-.078.097-.12.047-.06.094-.114.141-.172.055-.063.11-.122.168-.184l.086-.098c.004 0 .004-.004.008-.004.043-.05.094-.097.14-.144 1.246-1.258 2.817-2.031 4.5-2.215h.012c.11-.012.223-.02.336-.027.02 0 .035-.004.055-.004.129-.008.258-.012.39-.012zm5.79 7.473v-.008a6.48 6.48 0 00-1.579-3.656c-.039-.043-.074-.086-.113-.13l-.07-.07c-.047-.046-.09-.093-.137-.14-.043-.043-.09-.082-.133-.121-.027-.024-.05-.051-.078-.075-.07-.062-.14-.12-.21-.18 0 0-.005 0-.005-.003a5.545 5.545 0 00-2.851-1.215c-.012 0-.02-.004-.028-.004a2.528 2.528 0 00-.242-.02c-.02-.003-.035-.003-.05-.003-.098-.008-.196-.008-.294-.008-.097 0-.195 0-.293.008-.015 0-.03 0-.05.004-.082.004-.16.007-.243.02-.007 0-.015.003-.027.003a5.545 5.545 0 00-2.851 1.215c0 .004-.004.004-.004.004-.07.058-.141.117-.211.18-.028.023-.051.046-.078.07-.043.043-.09.082-.133.125l-.133.137-.074.074c-.035.039-.07.082-.11.125a6.495 6.495 0 00-1.582 3.66v.008c-.008.09-.015.18-.02.273 0 .016-.003.031-.003.047-.004.105-.008.21-.008.316 0 3.434 2.64 6.239 5.82 6.239s5.82-2.805 5.82-6.239c0-.105-.003-.21-.007-.316 0-.016-.004-.031-.004-.047a6 6 0 00-.02-.273zM117.574 14.484c-.008-.007-.011-.015-.02-.023a.91.91 0 00-.359-.27h-.004c-.015-.011-.035-.015-.05-.023-.008 0-.016-.004-.028-.008a.842.842 0 00-.394-.031h-.004a.97.97 0 00-.672.45h-.004c-.02.038-.043.077-.059.116l-.003.004v.004L111.5 26.957l-3.516-8.367a.954.954 0 00-.136-.215 1.052 1.052 0 00-.785-.363.54.54 0 00-.137.011h-.016a1.023 1.023 0 00-.738.567v.004l-3.516 8.367-1.703-4.629-2.805-7.629a1.06 1.06 0 00-.05-.117l-.008-.008a.85.85 0 00-.387-.363s-.004 0-.004-.004a1.158 1.158 0 00-.258-.078c-.007 0-.011 0-.02-.004a1.514 1.514 0 00-.132-.008h-.031c-.02 0-.04 0-.059.004-.011 0-.027.004-.039.004-.02.004-.035.004-.05.008-.012.004-.024.004-.036.008-.02.003-.039.007-.058.015-.008.004-.016.004-.024.008-.02.008-.039.012-.058.023h-.004a.904.904 0 00-.383.332l-.012.02-.012.023a.982.982 0 00-.128.391.893.893 0 00.062.438l3.246 8.722 2.082 5.594v.004c.086.21.211.355.383.433l.016.012c.004.004.007.008.015.012 0 .004.004.004.008.008a.069.069 0 01.02.015h.007a.26.26 0 00.121.04l.012.003c.016.004.031.012.047.016.008 0 .016.004.023.004a.717.717 0 00.461.008c.008-.004.016-.004.024-.008a.458.458 0 00.094-.035.139.139 0 00.035-.016c.02-.012.043-.023.066-.035.016-.012.035-.024.055-.035.012-.008.023-.02.035-.028.027-.02.05-.039.078-.062.004-.004.008-.008.012-.016a1.744 1.744 0 00.09-.097.909.909 0 00.066-.102c.02-.039.04-.082.055-.125l.004-.012.011-.015.012-.028 3.528-8.422 3.558 8.454c.027.086.07.164.129.238l.023.031c.02.024.04.047.063.07.012.008.023.02.035.028.02.02.043.039.067.058.011.008.019.016.03.02.028.02.055.039.083.055l.023.011c.031.016.059.032.094.043a.056.056 0 00.027.008c.028.012.055.024.086.031l.114.024h.117a.73.73 0 00.133-.012c.011 0 .02 0 .03-.004a.895.895 0 00.138-.039.59.59 0 00.113-.05c.004 0 .008-.005.011-.005.043-.027.086-.054.122-.082.156-.117.27-.27.347-.457v-.004l2.2-5.921 3.093-8.332a.915.915 0 00-.094-.864.326.326 0 00-.03-.047M167.25 14.746a.229.229 0 00-.008-.05c0-.012-.004-.024-.008-.036a1.27 1.27 0 00-.011-.055c-.004-.011-.008-.023-.012-.03a.173.173 0 00-.024-.063c0-.008-.003-.012-.007-.02a.445.445 0 00-.04-.074v-.004a.924.924 0 00-.171-.215l-.004-.004-.004-.004c-.332-.332-.8-.375-1.168-.117-.012.008-.02.016-.031.02l-.047.035-.07.066s-.004 0-.004.004l-9.153 8.922V8.2c0-.031 0-.062-.004-.094a.94.94 0 00-.578-.761c-.004 0-.004-.004-.008-.004a.344.344 0 00-.058-.02c-.008-.004-.02-.008-.031-.011l-.051-.012a.64.64 0 00-.094-.02c-.016-.004-.027-.004-.043-.007-.035-.004-.066-.004-.098-.004a.945.945 0 00-.937.933v21.164c0 .512.426.938.937.938.032 0 .067 0 .098-.004.004 0 .008-.004.016-.004.027-.004.054-.004.078-.012.008 0 .015-.004.023-.004.024-.007.047-.011.07-.02.005 0 .008-.003.012-.003a.944.944 0 00.664-.793c.004-.031.004-.063.004-.098v-3.57l3.082-3.078 5.989 7.226c.039.063.082.118.136.16.012.012.02.02.032.028.015.012.03.023.046.031.02.016.04.024.059.035l.027.016.078.031c.008.004.016.004.02.008l.09.023c.004 0 .012.004.02.004a.67.67 0 00.117.02c.039 0 .078.004.12.004.063 0 .122-.004.176-.012h.004c.11-.016.211-.05.305-.098.004 0 .004-.003.004-.003.043-.024.086-.051.129-.083l.012-.011c.355-.356.41-.84.152-1.242a1.736 1.736 0 00-.074-.106l-6.082-7.387 6.039-5.836a.976.976 0 00.281-.578c0-.004 0-.008.004-.011v-.063c0-.012.004-.023.004-.031v-.016c0-.015-.004-.027-.004-.043 0-.011-.004-.023-.004-.035" fill="#29B5E8"></path></g></svg>