<svg xmlns:xlink="http://www.w3.org/1999/xlink" class="logo logo-slack" role="img" viewBox="0 0 78 21" xmlns="http://www.w3.org/2000/svg" width="78"  height="21" ><g fill-rule="nonzero" fill="none"><g fill="#000"><path d="M24.615 15.366l.957-2.224c1.034.773 2.408 1.174 3.766 1.174 1.003 0 1.635-.386 1.635-.973-.015-1.637-6.003-.355-6.05-4.463-.015-2.085 1.837-3.691 4.46-3.691 1.56 0 3.118.386 4.23 1.266l-.896 2.27c-1.018-.648-2.284-1.111-3.487-1.111-.818 0-1.359.386-1.359.88.016 1.606 6.05.726 6.112 4.648 0 2.132-1.806 3.63-4.398 3.63-1.899 0-3.643-.448-4.97-1.406M61.33 12.34a2.777 2.777 0 01-2.408 1.405 2.76 2.76 0 01-2.762-2.765 2.76 2.76 0 012.762-2.764c1.034 0 1.93.571 2.408 1.405l2.639-1.467a5.802 5.802 0 00-5.047-2.965 5.791 5.791 0 000 11.583 5.752 5.752 0 005.047-2.966l-2.64-1.467zM35.31.386h3.303v16.169H35.31zM65.265.386v16.17h3.303v-4.85l3.92 4.85h4.228l-4.985-5.761 4.615-5.374h-4.044l-3.734 4.463V.386zM48.428 12.37c-.479.788-1.466 1.375-2.577 1.375a2.76 2.76 0 01-2.763-2.765 2.76 2.76 0 012.763-2.764c1.11 0 2.098.618 2.577 1.42v2.734zm0-6.95v1.313c-.54-.91-1.883-1.544-3.287-1.544-2.902 0-5.186 2.564-5.186 5.776 0 3.212 2.284 5.807 5.186 5.807 1.404 0 2.747-.634 3.287-1.545v1.313h3.302V5.42h-3.302z"></path></g><g fill="#E01E5A"><path d="M4.198 12.355c0 1.127-.91 2.038-2.037 2.038a2.036 2.036 0 01-2.038-2.038c0-1.128.911-2.039 2.038-2.039h2.037v2.039zM5.216 12.355a2.036 2.036 0 114.074 0v5.096a2.036 2.036 0 11-4.074 0v-5.096z" fill="#E01E5A"></path></g><g fill="#36C5F0"><path d="M7.253 4.17A2.036 2.036 0 015.216 2.13c0-1.127.91-2.038 2.037-2.038 1.127 0 2.037.91 2.037 2.038V4.17H7.253zM7.253 5.204c1.127 0 2.037.912 2.037 2.039 0 1.127-.91 2.039-2.037 2.039H2.145A2.036 2.036 0 01.108 7.243c0-1.127.91-2.039 2.037-2.039h5.108z" fill="#36C5F0"></path></g><g fill="#2EB67D"><path d="M15.417 7.243a2.036 2.036 0 114.074 0c0 1.127-.91 2.039-2.037 2.039h-2.037V7.243zM14.399 7.243a2.036 2.036 0 11-4.074 0V2.131c0-1.127.91-2.038 2.037-2.038 1.126 0 2.037.91 2.037 2.038v5.112z" fill="#2EB67D"></path></g><g fill="#ECB22E"><path d="M12.362 15.413c1.126 0 2.037.91 2.037 2.038a2.036 2.036 0 11-4.074 0v-2.038h2.037zM12.362 14.393a2.036 2.036 0 01-2.038-2.038c0-1.128.911-2.039 2.038-2.039h5.108c1.126 0 2.037.911 2.037 2.039 0 1.127-.91 2.038-2.037 2.038h-5.108z" fill="#ECB22E"></path></g></g></svg>