<svg xmlns:xlink="http://www.w3.org/1999/xlink" class="logo logo-stitch-fix" role="img" viewBox="0 0 102 13" xmlns="http://www.w3.org/2000/svg" width="102"  height="13" ><g fill="#2F3237" fill-rule="nonzero"><path d="M4.403 6.127h-.122C2.46 5.65 1.563 5.27 1.563 3.815a1.782 1.782 0 012.025-1.959 3.615 3.615 0 013.316 2.122v.095h.802V.85h-.83l-.325 1.183A4.144 4.144 0 003.642.863 3.328 3.328 0 00.041 4.156c0 2.176 1.82 2.815 3.846 3.318 2.025.503 2.895.898 2.895 2.407a1.932 1.932 0 01-2.066 1.932 4.375 4.375 0 01-3.9-2.095H0v3.237h.829l.367-1.36a4.673 4.673 0 003.438 1.36 3.505 3.505 0 003.724-3.495c0-2.217-1.835-2.72-3.955-3.264M10.003 3.352h.774v-.244c.259-1.36.313-1.36 1.25-1.36h2.094v10.2h-1.142v.952h3.941v-.952h-1.087V1.816h2.039c.965 0 1.046 0 1.29 1.36v.244h.789V.85h-9.948v2.502M28.662 3.352h.775v-.244c.258-1.36.313-1.36 1.237-1.36h2.106v10.2h-1.032v.952h3.94v-.952h-1.114V1.816h2.039c.965 0 1.046 0 1.359 1.36v.244h.788V.85H28.662v2.502M22.384 1.802h1.114v10.132h-1.114v.966h3.94v-.966H25.21V1.802h1.115V.85h-3.941v.952M60.07 1.802h1.142v4.923h-5.613V1.802h1.046V.85h-3.94v.952h1.182v10.132h-1.101v.966h3.941v-.966h-1.128V7.691h5.613v4.243H60.07v.966h3.942v-.966h-1.088V1.802h1.088V.85H60.07v.952M84.588 1.802h1.114v10.132h-1.114v.966h3.94v-.966h-1.114V1.802h1.115V.85h-3.941v.952M101.888 1.802V.85h-3.94v.952h.923L96.33 5.488l-2.474-3.686h.938V.85h-3.941v.952h1.114l3.439 5.114-3.384 5.018h-1.237v.966h3.941v-.966h-1.25l2.636-3.958 2.61 3.958h-.979v.966h3.928v-.966h-1.06l-3.56-5.372 3.275-4.76h1.562M73.24 1.816h1.182v10.132H73.24v.952h3.94v-.952h-1.032V7.69h1.807c.68 0 .72.095.965.775v.19h.802V5.637h-.788v.109l-.082.177c-.203.571-.299.802-.924.802h-1.78v-4.91h4.077c.802 0 .965.232 1.36 1.36v.11h.923V.85H73.24v.966M49.103 8.14c-.354 2.339-1.645 3.672-3.575 3.672-2.31 0-3.737-1.932-3.737-5.032 0-3.101 1.359-4.87 3.56-4.87a3.914 3.914 0 013.684 2.462v.082h.829V.85h-.924l-.327 1.265A4.334 4.334 0 0045.338.85a5.62 5.62 0 00-5.436 6.025 6.34 6.34 0 001.508 4.365 5.095 5.095 0 003.928 1.646c2.718 0 4.444-1.673 4.838-4.706v-.15H49.13v.11" fill="#2F3237"></path></g></svg>