<svg xmlns:xlink="http://www.w3.org/1999/xlink" class="logo logo-greenhouse" role="img" xmlns="http://www.w3.org/2000/svg" viewBox="0 0 123 30" width="200"  height="49" ><path fill="#3DC4BE" fill-rule="evenodd" stroke="#3DC4BE" stroke-width="0.5px" d="M98.4 5.7a.62.62 0 00-.6.63v6.62c-.42 1.54-1.53 2.68-3.37 2.68-1.8 0-3.02-1.14-3.02-3.2v-6.1a.62.62 0 00-.6-.62.62.62 0 00-.6.63v6.27c0 2.6 1.66 4.18 3.9 4.18 1.42 0 2.83-.43 3.7-1.74v1c0 .33.26.6.6.6.33 0 .6-.27.6-.6v-9.7a.62.62 0 00-.6-.63m-78.6.06a3.83 3.83 0 00-.7-.08c-1.3 0-2.47.6-3.2 1.73V6.34a.62.62 0 00-.6-.62.62.62 0 00-.62.63v9.7c0 .34.27.62.6.62.35 0 .62-.28.62-.62V9.2c.47-1.4 1.7-2.27 3.08-2.27.28 0 .56.04.83.1v-.02c.35 0 .62-.27.62-.6a.62.62 0 00-.6-.63m7.53.96c1.9 0 3.53 1.13 3.77 3.38h-7.6c.4-2.02 2-3.37 3.83-3.37m.04-1.15c-2.9 0-5.23 2.5-5.23 5.62 0 3.1 2.27 5.62 5.44 5.62 1.82 0 3.15-.7 4.07-1.56a.6.6 0 00.28-.5.58.58 0 00-.58-.6.57.57 0 00-.42.18c-.8.76-1.9 1.33-3.34 1.33-2.4 0-4.17-2-4.17-4.45h9.04c-.1-3.83-2.27-5.64-5.08-5.64m13.4 1.15c1.9 0 3.53 1.13 3.76 3.38h-7.6c.4-2.02 2-3.37 3.83-3.37m.04-1.16c-2.9 0-5.23 2.5-5.23 5.63.02 3.1 2.28 5.62 5.45 5.62 1.84 0 3.2-.74 4.1-1.6a.6.6 0 00.22-.47.58.58 0 00-.58-.6.57.57 0 00-.47.24c-.78.73-1.86 1.27-3.28 1.27-2.42 0-4.17-2-4.17-4.45h9.03c-.08-3.84-2.26-5.65-5.06-5.65m76.64 1.16c1.9 0 3.53 1.13 3.77 3.38h-7.6c.38-2.02 2-3.37 3.83-3.37m4 7.43a.57.57 0 00-.46.23 4.71 4.71 0 01-3.28 1.27c-2.42 0-4.18-2-4.18-4.45h9.03c-.1-3.84-2.27-5.65-5.08-5.65-2.9 0-5.22 2.5-5.22 5.63 0 3.1 2.27 5.62 5.44 5.62 1.84 0 3.2-.74 4.1-1.6a.6.6 0 00.2-.47.58.58 0 00-.57-.6m-14.22-3.45l-1.05-.37c-1.46-.53-1.78-1.2-1.78-2.05 0-.98.88-1.55 1.93-1.55 1.03 0 1.7.52 2.03 1.3h.03a.54.54 0 00.48.27.55.55 0 00.53-.7l.03-.02c-.53-1.3-1.7-2-3.04-2-1.9 0-3.24 1.2-3.24 2.68 0 1.15.53 2.4 2.46 3.1l1 .34c1.53.55 2.1 1.1 2.1 2.18 0 1.1-1.07 1.8-2.4 1.8-1.13 0-1.9-.5-2.45-1.4a.63.63 0 00-.15-.24.6.6 0 00-.44-.18.62.62 0 00-.58.8l-.03.03c.64 1.36 2.07 2.12 3.6 2.12 2.35 0 3.7-1.4 3.7-2.96 0-1.5-.92-2.5-2.72-3.16M54.3 5.58c-1.42 0-2.84.43-3.7 1.74v-1a.62.62 0 00-.6-.6.62.62 0 00-.6.6v9.7c0 .35.26.63.6.63a.62.62 0 00.6-.62V9.4c.4-1.54 1.53-2.67 3.37-2.67 1.8 0 3.02 1.13 3.02 3.2v6.11c0 .34.26.62.6.62.33 0 .6-.28.6-.62V9.76c0-2.62-1.66-4.2-3.9-4.2m13.28 0c-1.4 0-2.83.45-3.68 1.76V1.8a.62.62 0 00-.6-.63.62.62 0 00-.62.62v14.23c0 .34.27.62.6.62.34 0 .62-.28.62-.62V9.4c.4-1.54 1.52-2.67 3.36-2.67 1.8 0 3.02 1.13 3.02 3.2v6.1c0 .34.27.62.6.62.34 0 .62-.28.62-.62V9.76c0-2.62-1.67-4.2-3.92-4.2m13.36 10.08c-2.43 0-4.4-2.02-4.4-4.5 0-2.47 1.97-4.5 4.4-4.5 2.43 0 4.4 2.03 4.4 4.5 0 2.48-1.97 4.5-4.4 4.5m0-10.3c-3.15 0-5.7 2.6-5.7 5.8 0 3.2 2.55 5.82 5.7 5.82 3.15 0 5.7-2.6 5.7-5.8 0-3.22-2.55-5.83-5.7-5.83M7.17 27.87c-2.7 0-4.87-2.22-4.87-4.96 0-2.72 2.18-4.94 4.87-4.94 2.68 0 4.86 2.22 4.86 4.95s-2.18 4.97-4.86 4.97m0-10.98c-3.27 0-5.92 2.7-5.92 6 0 3.34 2.65 6.04 5.9 6.04 3.28 0 5.93-2.7 5.93-6.03 0-3.3-2.65-6-5.92-6M6.14 6.8c2.1 0 3.8 1.74 3.8 3.88s-1.7 3.9-3.8 3.9c-2.1 0-3.82-1.76-3.82-3.9S4.02 6.8 6.14 6.8m0 8.86c2.7 0 4.9-2.23 4.9-4.98 0-2.74-2.2-4.98-4.9-4.98s-4.9 2.24-4.9 4.98c0 2.75 2.2 4.98 4.9 4.98m3.9-10.2a1 1 0 001-1.02c0-.56-.46-1.02-1-1.02-.57 0-1 .46-1 1.02a.983.983 0 001 1.02"></path></svg>