<svg xmlns:xlink="http://www.w3.org/1999/xlink" width="29" height="19" viewBox="0 0 31 22" fill="none" xmlns="http://www.w3.org/2000/svg"><path d="M22.1 10.8a4 4 0 100-8 4 4 0 000 8zM14 17.4c0-2.2 1.8-5.8 4-5.8h8.1c2.2 0 4 3.6 4 5.8v1.3H14v-1.3zM10.4 9.8a4.4 4.4 0 100-8.8 4.4 4.4 0 000 8.8z" fill="#F6F6F6" stroke="#353C4E" stroke-width="1.25px" stroke-miterlimit="10" stroke-linecap="round" stroke-linejoin="round"></path><path d="M5.1 16.9v3.5h10.6v-3.5 3.5h3.5v-3.5c0-2.4-2-6.2-4.4-6.2H5.9c-2.4 0-4.4 3.7-4.4 6.2v3.5H5v-3.5h.1z" fill="#F6F6F6" stroke="#353C4E" stroke-width="1.25px" stroke-miterlimit="10" stroke-linecap="round" stroke-linejoin="round"></path></svg>