<svg xmlns:xlink="http://www.w3.org/1999/xlink" width="24" height="32" viewBox="0 0 24 33" fill="none" xmlns="http://www.w3.org/2000/svg"><path d="M17.4.6v6h6l-6-6zM17.26 20.84l-4.2-4.2c-.07-.07-.15-.13-.23-.19-.03-.02-.07-.04-.11-.06-.05-.03-.1-.06-.15-.08-.05-.02-.1-.03-.15-.05-.04-.01-.09-.03-.13-.04-.19-.04-.39-.04-.59 0-.05.01-.09.03-.13.04-.05.01-.1.03-.15.05-.05.02-.1.05-.15.08-.04.02-.07.04-.11.06-.08.06-.16.12-.23.19l-4.2 4.2a1.49 1.49 0 000 2.12c.59.59 1.54.59 2.12 0l1.64-1.64v8.98c0 .83.67 1.5 1.5 1.5s1.5-.67 1.5-1.5v-8.98l1.64 1.64c.29.29.68.44 1.06.44s.77-.15 1.06-.44c.6-.59.6-1.53.01-2.12z" fill="#F6F6F6" stroke="#353C4E" stroke-width="1.2px" stroke-miterlimit="10" stroke-linecap="round" stroke-linejoin="round"></path><path d="M17.4 6.6v-6H3C1.67.6.6 1.67.6 3v24c0 1.33 1.07 2.4 2.4 2.4h7.5v-8.08l-1.64 1.64c-.59.59-1.54.59-2.12 0a1.49 1.49 0 010-2.12l4.2-4.2c.07-.07.15-.13.23-.19.03-.02.07-.04.11-.06.05-.03.1-.06.15-.08.05-.02.1-.03.15-.05.04-.01.09-.03.13-.04.19-.04.39-.04.59 0 .05.01.09.03.13.04.05.01.1.03.15.05.05.02.1.05.15.08.04.02.07.04.11.06.08.06.16.12.23.19l4.2 4.2c.59.59.59 1.54 0 2.12-.29.29-.68.44-1.06.44s-.77-.15-1.06-.44l-1.64-1.64v8.08H21c1.33 0 2.4-1.07 2.4-2.4V6.6h-6z" fill="#F6F6F6" stroke="#353C4E" stroke-width="1.2px" stroke-miterlimit="10" stroke-linecap="round" stroke-linejoin="round"></path><path d="M17.14 13.21H6.86v-.02h10.28v.02zM17.14 9.61h-3.08v-.02h3.08v.02z" stroke="#353C4E" stroke-width="1.2px" stroke-miterlimit="10" stroke-linecap="round" stroke-linejoin="round" fill="none"></path><path d="M11.06 6h-4.2v3.6h4.2V6z" fill="#F6F6F6" stroke="#353C4E" stroke-width="1.2px" stroke-miterlimit="10" stroke-linecap="round" stroke-linejoin="round"></path></svg>