<svg xmlns:xlink="http://www.w3.org/1999/xlink" width="30" height="26" viewBox="0 0 30 28" fill="none" xmlns="http://www.w3.org/2000/svg"><path d="M7.8.6c-.66 0-1.2.54-1.2 1.2V3h16.8V1.8c0-.66-.54-1.2-1.2-1.2H7.8zM24.6 4.2c0-.66-.54-1.2-1.2-1.2H6.6c-.66 0-1.2.54-1.2 1.2v13.2h19.2V4.2zM.6 17.4h4.8v-4.8L.6 17.4zM24.6 12.6v4.8h4.8l-4.8-4.8zM29.4 17.4H.6V27h28.8v-9.6z" fill="#F6F6F6" stroke="#353C4E" stroke-width="1.25px" stroke-miterlimit="10" stroke-linecap="round" stroke-linejoin="round"></path><path d="M16.283 9.205l.006-.01.007-.008a1.91 1.91 0 00.324-1.068c0-.444-.109-.879-.418-1.204-.31-.326-.727-.456-1.182-.456-.442 0-.849.133-1.166.42a1.392 1.392 0 00-.406.65h-.456c.083-.328.248-.585.486-.793.36-.314.864-.497 1.542-.497.72 0 1.211.18 1.529.476.322.3.51.728.51 1.334 0 .48-.217 1.001-.764 1.567l-.734.715-.015.015-.014.016c-.267.308-.423.698-.492 1.137h-.351c.028-.232.075-.417.134-.562.092-.226.295-.509.666-.87.395-.385.659-.678.794-.862zm-1.169 4.445l.006.007.006.006c.045.044.074.101.074.206 0 .098-.025.148-.074.197-.033.032-.092.073-.256.073-.177 0-.231-.046-.245-.06-.042-.046-.065-.088-.065-.2 0-.112.028-.168.067-.21.05-.043.123-.08.253-.08.17 0 .217.043.234.061z" stroke="#353C4E" fill="none"></path></svg>